<mxfile host="app.diagrams.net" modified="2024-02-24T03:06:19.665Z" agent="Mozilla/5.0 (Windows NT 10.0; Win64; x64) AppleWebKit/537.36 (KHTML, like Gecko) Chrome/121.0.0.0 Safari/537.36 OPR/107.0.0.0" etag="avovrE2AI3MB23DE_x4z" version="23.1.6" type="github">
  <diagram id="C5RBs43oDa-KdzZeNtuy" name="Page-1">
    <mxGraphModel dx="1393" dy="776" grid="1" gridSize="10" guides="1" tooltips="1" connect="1" arrows="1" fold="1" page="1" pageScale="1" pageWidth="827" pageHeight="1169" math="0" shadow="0">
      <root>
        <mxCell id="WIyWlLk6GJQsqaUBKTNV-0" />
        <mxCell id="WIyWlLk6GJQsqaUBKTNV-1" parent="WIyWlLk6GJQsqaUBKTNV-0" />
        <mxCell id="gWkvY_HR5pOI9Yr1HUAK-0" value="Inicio" style="ellipse;whiteSpace=wrap;html=1;" vertex="1" parent="WIyWlLk6GJQsqaUBKTNV-1">
          <mxGeometry x="354" y="60" width="120" height="50" as="geometry" />
        </mxCell>
        <mxCell id="gWkvY_HR5pOI9Yr1HUAK-7" style="edgeStyle=orthogonalEdgeStyle;rounded=0;orthogonalLoop=1;jettySize=auto;html=1;exitX=1;exitY=0.5;exitDx=0;exitDy=0;entryX=0;entryY=0.5;entryDx=0;entryDy=0;" edge="1" parent="WIyWlLk6GJQsqaUBKTNV-1" source="gWkvY_HR5pOI9Yr1HUAK-1" target="gWkvY_HR5pOI9Yr1HUAK-6">
          <mxGeometry relative="1" as="geometry" />
        </mxCell>
        <mxCell id="gWkvY_HR5pOI9Yr1HUAK-1" value="Saldo" style="rounded=0;whiteSpace=wrap;html=1;" vertex="1" parent="WIyWlLk6GJQsqaUBKTNV-1">
          <mxGeometry x="350" y="150" width="120" height="60" as="geometry" />
        </mxCell>
        <mxCell id="gWkvY_HR5pOI9Yr1HUAK-5" style="edgeStyle=orthogonalEdgeStyle;rounded=0;orthogonalLoop=1;jettySize=auto;html=1;exitX=0.5;exitY=1;exitDx=0;exitDy=0;entryX=0.633;entryY=-0.033;entryDx=0;entryDy=0;entryPerimeter=0;" edge="1" parent="WIyWlLk6GJQsqaUBKTNV-1" source="gWkvY_HR5pOI9Yr1HUAK-0" target="gWkvY_HR5pOI9Yr1HUAK-1">
          <mxGeometry relative="1" as="geometry" />
        </mxCell>
        <mxCell id="gWkvY_HR5pOI9Yr1HUAK-9" style="edgeStyle=orthogonalEdgeStyle;rounded=0;orthogonalLoop=1;jettySize=auto;html=1;exitX=0.5;exitY=1;exitDx=0;exitDy=0;entryX=1;entryY=0.75;entryDx=0;entryDy=0;" edge="1" parent="WIyWlLk6GJQsqaUBKTNV-1" source="gWkvY_HR5pOI9Yr1HUAK-6" target="gWkvY_HR5pOI9Yr1HUAK-8">
          <mxGeometry relative="1" as="geometry" />
        </mxCell>
        <mxCell id="gWkvY_HR5pOI9Yr1HUAK-6" value="&lt;br&gt;Saldo inicial &quot;+&quot;&lt;br&gt;saldo&lt;div&gt;&lt;br&gt;&lt;/div&gt;" style="shape=hexagon;perimeter=hexagonPerimeter2;whiteSpace=wrap;html=1;fixedSize=1;" vertex="1" parent="WIyWlLk6GJQsqaUBKTNV-1">
          <mxGeometry x="540" y="140" width="120" height="70" as="geometry" />
        </mxCell>
        <mxCell id="gWkvY_HR5pOI9Yr1HUAK-11" style="edgeStyle=orthogonalEdgeStyle;rounded=0;orthogonalLoop=1;jettySize=auto;html=1;exitX=0.5;exitY=1;exitDx=0;exitDy=0;entryX=0.5;entryY=0;entryDx=0;entryDy=0;" edge="1" parent="WIyWlLk6GJQsqaUBKTNV-1" source="gWkvY_HR5pOI9Yr1HUAK-8" target="gWkvY_HR5pOI9Yr1HUAK-10">
          <mxGeometry relative="1" as="geometry" />
        </mxCell>
        <mxCell id="gWkvY_HR5pOI9Yr1HUAK-8" value="encerar = &quot;n&quot;" style="rounded=0;whiteSpace=wrap;html=1;" vertex="1" parent="WIyWlLk6GJQsqaUBKTNV-1">
          <mxGeometry x="354" y="280" width="120" height="60" as="geometry" />
        </mxCell>
        <mxCell id="gWkvY_HR5pOI9Yr1HUAK-12" style="edgeStyle=orthogonalEdgeStyle;rounded=0;orthogonalLoop=1;jettySize=auto;html=1;exitX=0.5;exitY=1;exitDx=0;exitDy=0;" edge="1" parent="WIyWlLk6GJQsqaUBKTNV-1" source="gWkvY_HR5pOI9Yr1HUAK-10">
          <mxGeometry relative="1" as="geometry">
            <mxPoint x="414" y="500" as="targetPoint" />
          </mxGeometry>
        </mxCell>
        <mxCell id="gWkvY_HR5pOI9Yr1HUAK-10" value="Tipo de entrada" style="rounded=1;whiteSpace=wrap;html=1;" vertex="1" parent="WIyWlLk6GJQsqaUBKTNV-1">
          <mxGeometry x="354" y="390" width="120" height="60" as="geometry" />
        </mxCell>
        <mxCell id="gWkvY_HR5pOI9Yr1HUAK-14" style="edgeStyle=orthogonalEdgeStyle;rounded=0;orthogonalLoop=1;jettySize=auto;html=1;exitX=0.5;exitY=1;exitDx=0;exitDy=0;" edge="1" parent="WIyWlLk6GJQsqaUBKTNV-1" source="gWkvY_HR5pOI9Yr1HUAK-13">
          <mxGeometry relative="1" as="geometry">
            <mxPoint x="414" y="600" as="targetPoint" />
          </mxGeometry>
        </mxCell>
        <mxCell id="gWkvY_HR5pOI9Yr1HUAK-13" value="quantidade" style="rounded=0;whiteSpace=wrap;html=1;" vertex="1" parent="WIyWlLk6GJQsqaUBKTNV-1">
          <mxGeometry x="354" y="500" width="120" height="60" as="geometry" />
        </mxCell>
        <mxCell id="gWkvY_HR5pOI9Yr1HUAK-21" style="edgeStyle=orthogonalEdgeStyle;rounded=0;orthogonalLoop=1;jettySize=auto;html=1;exitX=1;exitY=0.5;exitDx=0;exitDy=0;" edge="1" parent="WIyWlLk6GJQsqaUBKTNV-1" source="gWkvY_HR5pOI9Yr1HUAK-16" target="gWkvY_HR5pOI9Yr1HUAK-20">
          <mxGeometry relative="1" as="geometry" />
        </mxCell>
        <mxCell id="gWkvY_HR5pOI9Yr1HUAK-28" style="edgeStyle=orthogonalEdgeStyle;rounded=0;orthogonalLoop=1;jettySize=auto;html=1;exitX=0.5;exitY=1;exitDx=0;exitDy=0;" edge="1" parent="WIyWlLk6GJQsqaUBKTNV-1" source="gWkvY_HR5pOI9Yr1HUAK-16">
          <mxGeometry relative="1" as="geometry">
            <mxPoint x="410" y="810" as="targetPoint" />
          </mxGeometry>
        </mxCell>
        <mxCell id="gWkvY_HR5pOI9Yr1HUAK-16" value="Tipo de entrada = 1" style="rhombus;whiteSpace=wrap;html=1;" vertex="1" parent="WIyWlLk6GJQsqaUBKTNV-1">
          <mxGeometry x="330" y="600" width="160" height="110" as="geometry" />
        </mxCell>
        <mxCell id="gWkvY_HR5pOI9Yr1HUAK-24" value="" style="edgeStyle=orthogonalEdgeStyle;rounded=0;orthogonalLoop=1;jettySize=auto;html=1;" edge="1" parent="WIyWlLk6GJQsqaUBKTNV-1" source="gWkvY_HR5pOI9Yr1HUAK-20" target="gWkvY_HR5pOI9Yr1HUAK-23">
          <mxGeometry relative="1" as="geometry" />
        </mxCell>
        <mxCell id="gWkvY_HR5pOI9Yr1HUAK-20" value="saldo = saldo +quantidade" style="rounded=0;whiteSpace=wrap;html=1;" vertex="1" parent="WIyWlLk6GJQsqaUBKTNV-1">
          <mxGeometry x="560" y="625" width="120" height="60" as="geometry" />
        </mxCell>
        <mxCell id="gWkvY_HR5pOI9Yr1HUAK-22" value="V" style="text;strokeColor=none;align=center;fillColor=none;html=1;verticalAlign=middle;whiteSpace=wrap;rounded=0;" vertex="1" parent="WIyWlLk6GJQsqaUBKTNV-1">
          <mxGeometry x="490" y="610" width="60" height="30" as="geometry" />
        </mxCell>
        <mxCell id="gWkvY_HR5pOI9Yr1HUAK-27" style="edgeStyle=orthogonalEdgeStyle;rounded=0;orthogonalLoop=1;jettySize=auto;html=1;exitX=0.5;exitY=1;exitDx=0;exitDy=0;" edge="1" parent="WIyWlLk6GJQsqaUBKTNV-1" source="gWkvY_HR5pOI9Yr1HUAK-23">
          <mxGeometry relative="1" as="geometry">
            <mxPoint x="430" y="770" as="targetPoint" />
            <Array as="points">
              <mxPoint x="767" y="770" />
            </Array>
          </mxGeometry>
        </mxCell>
        <mxCell id="gWkvY_HR5pOI9Yr1HUAK-23" value="&quot;entrada &quot; + quantidade" style="rounded=1;whiteSpace=wrap;html=1;" vertex="1" parent="WIyWlLk6GJQsqaUBKTNV-1">
          <mxGeometry x="707" y="625" width="120" height="60" as="geometry" />
        </mxCell>
        <mxCell id="gWkvY_HR5pOI9Yr1HUAK-29" value="F" style="text;strokeColor=none;align=center;fillColor=none;html=1;verticalAlign=middle;whiteSpace=wrap;rounded=0;" vertex="1" parent="WIyWlLk6GJQsqaUBKTNV-1">
          <mxGeometry x="340" y="740" width="60" height="30" as="geometry" />
        </mxCell>
      </root>
    </mxGraphModel>
  </diagram>
</mxfile>
